# File created by Blade
# Date/Time:  Tue Jan 27 18:12:51 2015
#---------------------------------------------------------
:version 1.10
:name HOM
:units
  mass 1.0
  length 1.000000
  angle deg
:documentation
     Acclaim Skeleton File
:root
   axis xyz
   order TX TY TZ RX RY RZ
   position 0.000000 0.000000 0.000000
   orientation 0 0 0
:bonedata
   begin
      id 1
      name Spine_dum
      direction 0.000000 1.000000 0.000000
      length 5.195262
      axis 0.0 0.0 0.0 xyz
   end
   begin
      id 2
      name LeftUpLeg_dum
      direction 1.000000 0.000000 0.000000
      length 3.351363
      axis 0.0 0.0 0.0 xyz
   end
   begin
      id 3
      name RightUpLeg_dum
      direction -1.000000 0.000000 0.000000
      length 3.351363
      axis 0.0 0.0 0.0 xyz
   end
   begin
      id 4
      name Spine
      direction 0.000000 1.000000 0.000000
      length 0.000000
      axis 0.0 0.0 0.0 xyz
      dof rx ry rz
   end
   begin
      id 5
      name Spine_dum1
      direction 0.000000 1.000000 0.000000
      length 15.653875
      axis 0.0 0.0 0.0 xyz
   end
   begin
      id 6
      name Spine_dum2
      direction 0.000000 1.000000 0.000000
      length 10.329768
      axis 0.0 0.0 0.0 xyz
   end
   begin
      id 7
      name Spine_dum3
      direction 0.000000 1.000000 0.000000
      length 10.329768
      axis 0.0 0.0 0.0 xyz
   end
   begin
      id 8
      name Head
      direction 0.000000 1.000000 0.000000
      length 4.527550
      axis 0.0 0.0 0.0 xyz
      dof rx ry rz
   end
   begin
      id 9
      name LeftShoulder
      direction 1.000000 0.000000 0.000000
      length 6.996006
      axis 0.0 0.0 -90.0 xyz
      dof rx ry rz
   end
   begin
      id 10
      name LeftArm
      direction 1.000000 0.000000 0.000000
      length 10.209302
      axis 0.0 0.0 -90.0 xyz
      dof rx ry rz
   end
   begin
      id 11
      name LeftForeArm
      direction 1.000000 0.000000 0.000000
      length 8.563163
      axis 0.0 0.0 -90.0 xyz
      dof ry rz rx
   end
   begin
      id 12
      name LeftHand
      direction 0.000000 0.000000 0.000000
      length 0.000000
      axis 0.0 0.0 -90.0 xyz
      dof rx ry rz
   end
   begin
      id 13
      name LeftHand_dum1
      direction 0.000000 0.000000 0.000000
      length 0.000000
      axis 0.0 0.0 -90.0 xyz
   end
   begin
      id 14
      name LeftHand_dum2
      direction 1.000000 0.000000 0.000000
      length 3.937000
      axis 0.0 0.0 -90.0 xyz
   end
   begin
      id 15
      name LeftHandThumb1
      direction 0.000000 0.000000 1.000000
      length 3.937000
      axis 0.0 0.0 -90.0 xyz
      dof rx rz ry
   end
   begin
      id 16
      name RightShoulder
      direction -1.000000 0.000000 0.000000
      length 6.996006
      axis 0.0 0.0 90.0 xyz
      dof rx ry rz
   end
   begin
      id 17
      name RightArm
      direction -1.000000 0.000000 0.000000
      length 10.209302
      axis 0.0 0.0 90.0 xyz
      dof rx ry rz
   end
   begin
      id 18
      name RightForeArm
      direction -1.000000 0.000000 0.000000
      length 8.563163
      axis 0.0 0.0 90.0 xyz
      dof ry rz rx
   end
   begin
      id 19
      name RightHand
      direction 0.000000 0.000000 0.000000
      length 0.000000
      axis 0.0 0.0 90.0 xyz
      dof rx ry rz
   end
   begin
      id 20
      name RightHand_dum1
      direction 0.000000 0.000000 0.000000
      length 0.000000
      axis 0.0 0.0 90.0 xyz
   end
   begin
      id 21
      name RightHand_dum2
      direction -1.000000 0.000000 0.000000
      length 3.937000
      axis 0.0 0.0 90.0 xyz
   end
   begin
      id 22
      name RightHandThumb1
      direction 0.000000 0.000000 1.000000
      length 3.937000
      axis 0.0 0.0 90.0 xyz
      dof rx rz ry
   end
   begin
      id 23
      name LeftUpLeg
      direction 0.000000 -1.000000 0.000000
      length 16.346831
      axis 0.0 0.0 0.0 xyz
      dof rx ry rz
   end
   begin
      id 24
      name LeftLeg
      direction 0.000000 -1.000000 0.000000
      length 13.959795
      axis 0.0 0.0 0.0 xyz
      dof rx ry rz
   end
   begin
      id 25
      name LeftFoot
      direction 0.000000 -0.258819 0.965926
      length 5.165550
      axis 15.0 0.0 0.0 xyz
      dof rx ry rz
   end
   begin
      id 26
      name LeftToeBase
      direction 0.000000 0.000000 1.000000
      length 2.952750
      axis 0.0 0.0 0.0 xyz
      dof rx ry rz
   end
   begin
      id 27
      name RightUpLeg
      direction 0.000000 -1.000000 0.000000
      length 16.346831
      axis 0.0 0.0 0.0 xyz
      dof rx ry rz
   end
   begin
      id 28
      name RightLeg
      direction 0.000000 -1.000000 0.000000
      length 13.959795
      axis 0.0 0.0 0.0 xyz
      dof rx ry rz
   end
   begin
      id 29
      name RightFoot
      direction 0.000000 -0.258819 0.965926
      length 5.165550
      axis 15.0 0.0 0.0 xyz
      dof rx ry rz
   end
   begin
      id 30
      name RightToeBase
      direction 0.000000 0.000000 1.000000
      length 2.952750
      axis 0.0 0.0 0.0 xyz
      dof rx ry rz
   end
:hierarchy
   begin
      root Spine_dum LeftUpLeg_dum RightUpLeg_dum
      Spine_dum Spine
      LeftUpLeg_dum LeftUpLeg
      RightUpLeg_dum RightUpLeg
      Spine Spine_dum1 Spine_dum2 Spine_dum3
      Spine_dum1 Head
      Spine_dum2 LeftShoulder
      Spine_dum3 RightShoulder
      LeftShoulder LeftArm
      LeftArm LeftForeArm
      LeftForeArm LeftHand
      LeftHand LeftHand_dum1 LeftHand_dum2
      LeftHand_dum1 LeftHandThumb1
      RightShoulder RightArm
      RightArm RightForeArm
      RightForeArm RightHand
      RightHand RightHand_dum1 RightHand_dum2
      RightHand_dum1 RightHandThumb1
      LeftUpLeg LeftLeg
      LeftLeg LeftFoot
      LeftFoot LeftToeBase
      RightUpLeg RightLeg
      RightLeg RightFoot
      RightFoot RightToeBase
   end

# File created by Blade
# Date/Time:  Tue Jan 27 18:12:42 2015
# Frame Rate: 120.000 fps
#------------------------------------------------------
:FULLY-SPECIFIED
:DEGREES
395
root -1.541586 31.780501 -6.495736 4.342480 15.222171 4.457812
Spine -7.700877 4.004786 -1.332128
Head 17.280291 -7.026235 -0.034912
LeftShoulder -8.556747 16.924406 4.732122
LeftArm 26.540804 41.446146 -68.391105
LeftForeArm -1.064855 -0.000000 13.964791
LeftHand -10.431705 -0.000000 -5.801613
LeftHandThumb1 -26.253704 0.000000 33.147579
RightShoulder 11.764532 32.313310 -9.329155
RightArm 24.916213 -1.218124 117.634976
RightForeArm 16.753840 -0.000000 153.452845
RightHand -3.592254 -0.000000 6.128016
RightHandThumb1 -24.326973 -0.000000 -32.862282
LeftUpLeg -1.052302 -5.526238 -1.291713
LeftLeg 2.224471 -0.000000 -0.000000
LeftFoot -16.596863 13.300548 -24.219635
LeftToeBase 8.587386 -0.000000 -0.000000
RightUpLeg 4.658721 -9.074151 -4.194793
RightLeg -3.500465 -0.000000 0.000000
RightFoot -17.410402 -16.825133 10.326014
RightToeBase 5.426841 -0.000000 -0.000000
396
root -1.541865 31.780240 -6.499229 4.332328 15.261044 4.459123
Spine -7.713405 3.981723 -1.351876
Head 17.419155 -6.999192 0.112104
LeftShoulder -8.561009 16.923328 4.744559
LeftArm 26.572308 41.457557 -68.381421
LeftForeArm -1.023249 -0.000000 13.994134
LeftHand -10.501960 -0.000000 -6.073178
LeftHandThumb1 -26.253704 0.000000 33.147579
RightShoulder 11.780751 32.318682 -9.308674
RightArm 24.879662 -1.223857 117.620120
RightForeArm 16.803202 -0.000000 153.451353
RightHand -3.574079 -0.000000 6.236582
RightHandThumb1 -24.326973 -0.000000 -32.862282
LeftUpLeg -1.043381 -5.540314 -1.291407
LeftLeg 2.206557 -0.000000 -0.000000
LeftFoot -16.580264 13.274823 -24.235934
LeftToeBase 8.606506 -0.000000 -0.000000
RightUpLeg 4.667672 -9.076032 -4.195191
RightLeg -3.494246 -0.000000 0.000000
RightFoot -17.418854 -16.846541 10.357566
RightToeBase 5.398723 -0.000000 -0.000000
397
root -1.542969 31.780320 -6.502979 4.323276 15.291858 4.457899
Spine -7.722788 3.976467 -1.375824
Head 17.536473 -6.994175 0.294898
LeftShoulder -8.565243 16.900642 4.754813
LeftArm 26.595833 41.477095 -68.376810
LeftForeArm -1.005093 -0.000000 14.012646
LeftHand -10.509326 -0.000000 -6.094674
LeftHandThumb1 -26.253704 0.000000 33.147579
RightShoulder 11.775201 32.297413 -9.286679
RightArm 24.877267 -1.266966 117.579354
RightForeArm 16.868525 -0.000000 153.443044
RightHand -3.532009 0.000000 6.349128
RightHandThumb1 -24.326973 -0.000000 -32.862282
LeftUpLeg -1.042119 -5.520317 -1.288326
LeftLeg 2.198605 -0.000000 -0.000000
LeftFoot -16.540278 13.248987 -24.177500
LeftToeBase 8.583824 -0.000000 -0.000000
RightUpLeg 4.671436 -9.089774 -4.192649
RightLeg -3.485785 -0.000000 0.000000
RightFoot -17.426889 -16.862371 10.344282
RightToeBase 5.424466 -0.000000 -0.000000
398
root -1.543687 31.780401 -6.505768 4.310852 15.322981 4.458822
Spine -7.731038 3.960660 -1.398223
Head 17.662180 -6.917301 0.446127
LeftShoulder -8.587222 16.895403 4.757057
LeftArm 26.645374 41.502029 -68.354129
LeftForeArm -0.986982 -0.000000 14.024939
LeftHand -10.484273 -0.000000 -6.106708
LeftHandThumb1 -26.253704 0.000000 33.147579
RightShoulder 11.758312 32.212370 -9.277785
RightArm 24.941833 -1.375005 117.534071
RightForeArm 16.939939 -0.000000 153.424735
RightHand -3.487289 0.000000 6.410175
RightHandThumb1 -24.326973 -0.000000 -32.862282
LeftUpLeg -1.034738 -5.514075 -1.288121
LeftLeg 2.191424 -0.000000 -0.000000
LeftFoot -16.522954 13.219541 -24.177414
LeftToeBase 8.582414 -0.000000 -0.000000
RightUpLeg 4.679576 -9.113504 -4.193385
RightLeg -3.475049 -0.000000 0.000000
RightFoot -17.439114 -16.865035 10.354242
RightToeBase 5.425249 -0.000000 -0.000000
399
root -1.544426 31.780246 -6.509922 4.302931 15.351424 4.453863
Spine -7.743992 3.938640 -1.403034
Head 17.783741 -6.840203 0.578698
LeftShoulder -8.625493 16.899999 4.740775
LeftArm 26.737050 41.567039 -68.288641
LeftForeArm -1.149125 -0.000000 14.015627
LeftHand -10.368418 -0.000000 -5.699820
LeftHandThumb1 -26.253704 0.000000 33.147579
RightShoulder 11.772861 32.164599 -9.278183
RightArm 24.977239 -1.436623 117.506099
RightForeArm 17.042862 -0.000000 153.423053
RightHand -3.507392 0.000000 6.485535
RightHandThumb1 -24.326973 -0.000000 -32.862282
LeftUpLeg -1.033830 -5.524481 -1.281165
LeftLeg 2.182621 -0.000000 -0.000000
LeftFoot -16.501648 13.208764 -24.156561
LeftToeBase 8.581203 -0.000000 -0.000000
RightUpLeg 4.681047 -9.119991 -4.187826
RightLeg -3.469333 -0.000000 0.000000
RightFoot -17.441833 -16.867393 10.372706
RightToeBase 5.439292 -0.000000 -0.000000
400
root -1.545515 31.779972 -6.513873 4.297912 15.382083 4.452696
Spine -7.758520 3.933162 -1.422973
Head 17.901715 -6.783380 0.719184
LeftShoulder -8.616230 16.869889 4.749783
LeftArm 26.745586 41.606996 -68.296641
LeftForeArm -1.103092 -0.000000 14.030300
LeftHand -10.400297 -0.000000 -5.601562
LeftHandThumb1 -26.253704 0.000000 33.147579
RightShoulder 11.760342 32.136351 -9.283301
RightArm 25.001856 -1.475950 117.487379
RightForeArm 17.176984 -0.000000 153.425982
RightHand -3.547851 -0.000000 6.427135
RightHandThumb1 -24.326973 -0.000000 -32.862282
LeftUpLeg -1.034321 -5.521190 -1.276027
LeftLeg 2.170510 -0.000000 -0.000000
LeftFoot -16.480200 13.182310 -24.139549
LeftToeBase 8.563526 -0.000000 -0.000000
RightUpLeg 4.687474 -9.133770 -4.183527
RightLeg -3.475815 -0.000000 0.000000
RightFoot -17.455872 -16.882628 10.391512
RightToeBase 5.437442 -0.000000 -0.000000
401
root -1.546059 31.779653 -6.518086 4.287311 15.413639 4.453863
Spine -7.763365 3.919700 -1.441063
Head 18.002073 -6.713924 0.851914
LeftShoulder -8.626976 16.879232 4.738986
LeftArm 26.847584 41.678217 -68.223594
LeftForeArm -1.090966 0.000000 14.022645
LeftHand -10.476376 -0.000000 -6.020146
LeftHandThumb1 -26.253704 0.000000 33.147579
RightShoulder 11.721247 31.876032 -9.329419
RightArm 25.244415 -1.653982 117.444941
RightForeArm 17.219377 -0.000000 153.409379
RightHand -3.459784 -0.000000 6.577272
RightHandThumb1 -24.326973 -0.000000 -32.862282
LeftUpLeg -1.030957 -5.545913 -1.276177
LeftLeg 2.162969 -0.000000 -0.000000
LeftFoot -16.474578 13.179092 -24.140771
LeftToeBase 8.588717 -0.000000 -0.000000
RightUpLeg 4.696666 -9.153490 -4.184422
RightLeg -3.477220 -0.000000 0.000000
RightFoot -17.441401 -16.891362 10.357290
RightToeBase 5.449443 -0.000000 -0.000000
402
root -1.545736 31.779423 -6.522170 4.278453 15.440431 4.453934
Spine -7.766974 3.915327 -1.452902
Head 18.086512 -6.642139 0.972644
LeftShoulder -8.642367 16.898355 4.722192
LeftArm 26.956216 41.739061 -68.155348
LeftForeArm -1.148064 -0.000000 14.024057
LeftHand -10.431478 -0.000000 -5.633869
LeftHandThumb1 -26.253704 0.000000 33.147579
RightShoulder 11.703584 31.874946 -9.342936
RightArm 25.252514 -1.705451 117.425342
RightForeArm 17.294471 -0.000000 153.404746
RightHand -3.432951 -0.000000 6.662133
RightHandThumb1 -24.326973 -0.000000 -32.862282
LeftUpLeg -1.031162 -5.557378 -1.277432
LeftLeg 2.164247 -0.000000 -0.000000
LeftFoot -16.459412 13.172190 -24.124932
LeftToeBase 8.578793 -0.000000 -0.000000
RightUpLeg 4.703956 -9.174274 -4.186373
RightLeg -3.475377 -0.000000 0.000000
RightFoot -17.448072 -16.882607 10.377902
RightToeBase 5.464639 -0.000000 -0.000000
403
root -1.545469 31.779889 -6.526339 4.270715 15.456446 4.452967
Spine -7.773904 3.936590 -1.470091
Head 18.163250 -6.601314 1.093587
LeftShoulder -8.622348 16.881394 4.713520
LeftArm 26.992284 41.782672 -68.144281
LeftForeArm -1.145435 0.000000 14.022095
LeftHand -10.387749 -0.000000 -5.314229
LeftHandThumb1 -26.253704 0.000000 33.147579
RightShoulder 11.656287 31.957132 -9.329501
RightArm 25.185302 -1.738733 117.392123
RightForeArm 17.373885 -0.000000 153.381692
RightHand -3.407215 -0.000000 6.726072
RightHandThumb1 -24.326973 -0.000000 -32.862282
LeftUpLeg -1.029858 -5.573534 -1.277822
LeftLeg 2.159015 -0.000000 -0.000000
LeftFoot -16.460642 13.168174 -24.151467
LeftToeBase 8.605145 -0.000000 -0.000000
RightUpLeg 4.706291 -9.181230 -4.188212
RightLeg -3.472499 -0.000000 0.000000
RightFoot -17.440584 -16.906865 10.361003
RightToeBase 5.416911 -0.000000 -0.000000
404
root -1.546231 31.779946 -6.530474 4.263099 15.463549 4.449810
Spine -7.776261 3.957859 -1.482147
Head 18.201502 -6.543861 1.215850
LeftShoulder -8.617880 16.884334 4.697293
LeftArm 27.059309 41.834886 -68.099015
LeftForeArm -1.135174 -0.000000 14.022876
LeftHand -10.409785 -0.000000 -5.251104
LeftHandThumb1 -26.253704 0.000000 33.147579
RightShoulder 11.625858 31.954204 -9.332870
RightArm 25.198013 -1.784377 117.367487
RightForeArm 17.380842 -0.000000 153.374754
RightHand -3.387604 -0.000000 6.797024
RightHandThumb1 -24.326973 -0.000000 -32.862282
LeftUpLeg -1.026676 -5.579248 -1.274386
LeftLeg 2.147864 -0.000000 -0.000000
LeftFoot -16.449223 13.175573 -24.130967
LeftToeBase 8.612600 -0.000000 -0.000000
RightUpLeg 4.705183 -9.219634 -4.185909
RightLeg -3.470649 -0.000000 0.000000
RightFoot -17.432955 -16.874728 10.358525
RightToeBase 5.458630 -0.000000 -0.000000
405
root -1.545751 31.779898 -6.535537 4.260737 15.477850 4.458742
Spine -7.779067 3.959180 -1.493174
Head 18.246228 -6.472008 1.296233
LeftShoulder -8.612391 16.872940 4.677862
LeftArm 27.094526 41.887429 -68.075146
LeftForeArm -1.142948 0.000000 14.024196
LeftHand -10.443431 -0.000000 -5.238731
LeftHandThumb1 -26.253704 0.000000 33.147579
RightShoulder 11.626204 32.032882 -9.347223
RightArm 25.128188 -1.778879 117.357764
RightForeArm 17.351199 -0.000000 153.374644
RightHand -3.371518 0.000000 6.782747
RightHandThumb1 -24.326973 -0.000000 -32.862282
LeftUpLeg -1.028606 -5.599024 -1.283970
LeftLeg 2.142437 -0.000000 -0.000000
LeftFoot -16.443533 13.176019 -24.145737
LeftToeBase 8.609133 -0.000000 -0.000000
RightUpLeg 4.703285 -9.225731 -4.196636
RightLeg -3.468882 -0.000000 0.000000
RightFoot -17.438463 -16.881006 10.375540
RightToeBase 5.417229 -0.000000 -0.000000
